<?xml version="1.0" encoding="UTF-8"?>
<svg width="10px" height="10px" viewBox="0 0 10 10" version="1.1" xmlns="http://www.w3.org/2000/svg" xmlns:xlink="http://www.w3.org/1999/xlink">
    <title>编组 5备份 7</title>
    <g id="发现" stroke="none" stroke-width="1" fill="none" fill-rule="evenodd">
        <g id="动态-分享h5" transform="translate(-176.000000, -123.000000)" fill="#2984F1">
            <g id="编组-5备份-7" transform="translate(181.000000, 128.000000) scale(-1, 1) translate(-181.000000, -128.000000) translate(176.000000, 123.000000)">
                <g id="编组-4" opacity="0">
                    <rect id="矩形" x="0" y="0" width="10" height="10"></rect>
                    <rect id="矩形" x="1" y="1" width="8" height="8"></rect>
                </g>
                <g id="编组-9备份" transform="translate(1.000000, 2.000000)" fill-rule="nonzero">
                    <g id="编组">
                        <path d="M2.99811972,7 C2.79656756,7 2.59399229,6.98002543 2.39244013,6.93907755 C2.00877486,6.86117671 1.64966415,6.7113674 1.3253391,6.49564199 C0.990782981,6.27192676 0.708405335,5.98629034 0.486391027,5.6477213 C0.0495241619,4.97957178 -0.0998495202,4.17959007 0.0658938804,3.39658674 C0.231637281,2.61258469 0.692035616,1.9384428 1.36421719,1.4970047 C1.87474778,1.16143184 2.46508076,0.989650503 3.07280656,0.99963779 C3.66518575,1.00962508 4.23607969,1.19039498 4.72205571,1.52397037 C4.86119832,1.6188496 4.89393776,1.80561188 4.79674255,1.94143898 C4.69954735,2.07726609 4.50822626,2.10922541 4.36908365,2.01434618 C3.56901366,1.46604411 2.52339788,1.45805428 1.70695817,1.99437161 C0.597909734,2.72244485 0.282792652,4.21754176 1.00612959,5.32413319 C1.35603233,5.85945179 1.89316372,6.22398778 2.51930545,6.35182505 C3.14135476,6.4786636 3.77772757,6.35482124 4.31178964,6.00426746 C5.42288429,5.27419675 5.73800137,3.78009857 5.01466443,2.67250841 L4.87756804,2.46277538 L7.48342261,0.0808073587 C7.60721861,-0.0320489878 7.80160902,-0.0260566154 7.91722016,0.0947895609 C8.03283129,0.215635737 8.02669265,0.405394196 7.90289665,0.518250542 L5.66024521,2.5676419 C5.99582444,3.18885117 6.09915829,3.90194348 5.95183082,4.60205232 C5.78608742,5.38605437 5.32568908,6.06019627 4.65350751,6.50163436 C4.1542311,6.82921739 3.58231405,7 2.99811972,7 Z" id="路径"></path>
                        <path d="M7.74522293,2 C7.60424628,2 7.49044586,1.88706279 7.49044586,1.7471555 L7.49044586,0.505689001 L6.25477707,0.505689001 C6.11380042,0.505689001 6,0.392751791 6,0.252844501 C6,0.11293721 6.11380042,0 6.25477707,0 L8,0 L8,1.74799831 C8,1.88706279 7.88619958,2 7.74522293,2 L7.74522293,2 Z" id="路径"></path>
                    </g>
                </g>
            </g>
        </g>
    </g>
</svg>