<?xml version="1.0" encoding="UTF-8"?>
<svg width="10px" height="10px" viewBox="0 0 10 10" version="1.1" xmlns="http://www.w3.org/2000/svg" xmlns:xlink="http://www.w3.org/1999/xlink">
    <title>编组 5备份 4</title>
    <g id="发现" stroke="none" stroke-width="1" fill="none" fill-rule="evenodd">
        <g id="动态-分享h5" transform="translate(-134.000000, -123.000000)" fill="#FF4B4B">
            <g id="编组-5备份-4" transform="translate(139.000000, 128.000000) scale(-1, 1) translate(-139.000000, -128.000000) translate(134.000000, 123.000000)">
                <g id="编组-4" opacity="0">
                    <rect id="矩形" x="0" y="0" width="10" height="10"></rect>
                    <rect id="矩形" x="1" y="1" width="8" height="8"></rect>
                </g>
                <g id="编组" transform="translate(1.000000, 1.000000)" fill-rule="nonzero">
                    <path d="M6.70219114,8 C6.62217226,8 6.54116548,7.96742285 6.48288012,7.90325574 L4.4330136,5.65444527 C3.81163238,5.99107581 3.09738973,6.09473038 2.39598962,5.94566524 C1.61160696,5.77981793 0.93687981,5.31781473 0.496281994,4.64554084 C0.0556841782,3.97326694 -0.0984262687,3.17068445 0.061611503,2.38587132 C0.222637162,1.600071 0.680029066,0.925822731 1.34882889,0.487511999 C2.0186166,0.0492012663 2.81979335,-0.0998638701 3.60516389,0.065983434 C4.38954655,0.231830738 5.0642737,0.693833942 5.50487152,1.36610784 C5.83877749,1.87549598 6.00968202,2.46484623 5.99980315,3.06999145 C5.98992427,3.66131606 5.80914086,4.22993539 5.47819856,4.71464388 C5.38632502,4.84988841 5.20159006,4.88443993 5.06624948,4.79164441 C4.93090889,4.69983609 4.89633283,4.51523224 4.98919425,4.37998771 C5.54241124,3.57049492 5.55031434,2.51519273 5.00993989,1.68990495 C4.65528829,1.14892684 4.11293806,0.777744781 3.48266585,0.644474626 C2.85338152,0.511204471 2.21125466,0.631641203 1.67483176,0.982092352 C1.13840886,1.33353069 0.771902601,1.87352161 0.643477229,2.50334649 C0.514063969,3.13415856 0.638537791,3.77879124 0.993189397,4.31976935 C1.347841,4.86074746 1.88920334,5.23192952 2.51947555,5.36519967 C3.14875988,5.49846983 3.79088674,5.3780331 4.32730964,5.02758195 L4.53871756,4.88937586 L6.92249005,7.50344527 C7.03313345,7.62388201 7.02424246,7.81144741 6.9027323,7.92201228 C6.84543483,7.97433316 6.77430693,8 6.70219114,8 L6.70219114,8 Z" id="路径"></path>
                    <path d="M4.34487057,8 C4.25627996,8 4.16768936,7.96663791 4.10095877,7.8987633 C3.96634708,7.76416451 3.96634708,7.54558527 4.10095877,7.41098648 L6.41121764,5.10094909 C6.54582934,4.9663503 6.76442953,4.9663503 6.89904123,5.10094909 C7.03365292,5.23554789 7.03365292,5.45412712 6.89904123,5.58872591 L4.58878236,7.8987633 C4.52090125,7.96548749 4.43346117,8 4.34487057,8 L4.34487057,8 Z" id="路径"></path>
                </g>
            </g>
        </g>
    </g>
</svg>